<svg xmlns="http://www.w3.org/2000/svg" viewBox="0 0 980 190" role="img" aria-labelledby="title desc">
  <title id="title">UStartTeaching International Honor Society</title>
  <desc id="desc">A teal abstract mark beside the UStartTeaching wordmark and subtitle on a transparent background.</desc>
  <defs>
    <linearGradient id="ustartGradient" x1="0%" y1="0%" x2="100%" y2="100%">
      <stop offset="0%" stop-color="#2fd1e2" />
      <stop offset="100%" stop-color="#10aebf" />
    </linearGradient>
  </defs>
  <path
    fill="url(#ustartGradient)"
    d="M110 24c-46 0-82 35-82 82 0 44 30 79 71 85 18 3 35-3 45-15 5-5 4-13-2-17-3-2-6-3-9-3-19 0-34-15-34-34 0-18 15-33 33-33h6c27 0 49-22 49-49 0-9-2-16-7-16z"
  />
  <text
    x="220"
    y="92"
    fill="#111111"
    font-size="88"
    font-family="Montserrat, Avenir Next, Arial, sans-serif"
    font-weight="700"
    letter-spacing="-2"
  >
    UstartTeaching
  </text>
  <text
    x="220"
    y="145"
    fill="#111111"
    font-size="34"
    font-family="Montserrat, Avenir Next, Arial, sans-serif"
    font-weight="500"
    letter-spacing="1.6"
  >
    INTERNATIONAL HONOR SOCIETY
  </text>
</svg>
